<?xml version="1.0" encoding="UTF-8" standalone="no"?><!DOCTYPE svg PUBLIC "-//W3C//DTD SVG 1.1//EN" "http://www.w3.org/Graphics/SVG/1.1/DTD/svg11.dtd"><svg width="100%" height="100%" viewBox="0 0 1875 1875" version="1.1" xmlns="http://www.w3.org/2000/svg" xmlns:xlink="http://www.w3.org/1999/xlink" xml:space="preserve" xmlns:serif="http://www.serif.com/" style="fill-rule:evenodd;clip-rule:evenodd;stroke-linejoin:round;stroke-miterlimit:2;"><path d="M312.5,1184.61l-0,451.543c-187.605,-167.923 -307.284,-410.209 -312.5,-680.319c5.207,-274.973 124.51,-522.238 312.5,-696.383l-0,678.053l0.345,-0c-0.153,4.064 -0.268,8.137 -0.345,12.22c4.365,226.061 128.993,422.889 312.5,529.1c91.94,53.213 198.661,83.68 312.441,83.68c291.014,0 535.844,-199.307 605.321,-468.75l-334.624,0c-54.066,93.378 -155.067,156.25 -270.638,156.25c-172.473,0 -312.5,-140.027 -312.5,-312.5l0,-873.007c103.017,-39.643 214.441,-62.289 330.83,-64.493c508.983,9.828 919.17,426.095 919.17,937.411c-0,517.47 -420.119,937.589 -937.589,937.589c-109.517,0 -214.674,-18.818 -312.411,-53.394l0,-289.244c-141.431,-74.493 -253.134,-197.949 -312.5,-347.756Zm1230.29,-403.356c-68.457,-265.705 -307.428,-463.234 -593.073,-468.75c-99.703,1.888 -193.942,26.277 -277.845,68.296l-0,392.099c55.151,-88.754 153.536,-147.895 265.625,-147.895c115.571,0 216.572,62.872 270.638,156.25l334.655,0Z" style="fill:url(#_Linear1);"/><defs><linearGradient id="_Linear1" x1="0" y1="0" x2="1" y2="0" gradientUnits="userSpaceOnUse" gradientTransform="matrix(1875,0,0,1875,0,937.5)"><stop offset="0" style="stop-color:#62cff4;stop-opacity:1"/><stop offset="1" style="stop-color:#0077b6;stop-opacity:1"/></linearGradient></defs></svg>