<?xml version="1.0" standalone="no"?>
<!DOCTYPE svg PUBLIC "-//W3C//DTD SVG 20010904//EN"
 "http://www.w3.org/TR/2001/REC-SVG-20010904/DTD/svg10.dtd">
<svg version="1.0" xmlns="http://www.w3.org/2000/svg"
 width="700.000000pt" height="700.000000pt" viewBox="0 0 700.000000 700.000000"
 preserveAspectRatio="xMidYMid meet">
<metadata>
Created by potrace 1.11, written by Peter Selinger 2001-2013
</metadata>
<g transform="translate(0.000000,700.000000) scale(0.100000,-0.100000)"
fill="#000000" stroke="none">
<path d="M3285 6994 c-417 -34 -731 -105 -1102 -251 l-93 -36 0 -654 0 -654
71 57 c165 132 432 277 639 349 231 80 450 116 705 116 263 1 449 -29 687
-108 573 -189 1049 -609 1332 -1173 346 -691 353 -1521 18 -2213 -152 -314
-344 -567 -595 -783 -324 -279 -704 -453 -1132 -520 -145 -23 -457 -22 -605 0
-395 61 -748 212 -1046 448 -34 26 -65 48 -68 48 -3 0 -6 -296 -6 -658 l0
-659 93 -36 c446 -177 832 -250 1312 -250 271 0 415 12 640 54 914 170 1720
697 2247 1469 321 471 511 980 585 1570 23 186 23 604 0 790 -118 941 -560
1741 -1288 2331 -500 405 -1123 666 -1779 744 -130 15 -512 27 -615 19z"/>
<path d="M1066 6010 c-217 -212 -358 -383 -508 -615 -296 -456 -478 -974 -540
-1536 -18 -171 -16 -574 6 -749 80 -660 314 -1232 722 -1760 50 -65 173 -200
284 -310 l195 -195 3 1103 2 1102 414 0 413 0 14 -47 c40 -146 150 -366 246
-494 236 -312 548 -515 913 -594 103 -22 355 -31 461 -16 505 71 934 387 1163
855 119 243 170 467 170 751 0 294 -47 497 -176 760 -217 444 -618 750 -1096
836 -100 18 -141 20 -287 16 -233 -8 -370 -41 -574 -138 -372 -176 -680 -530
-806 -926 l-29 -93 -413 0 -413 0 -2 1103 -3 1102 -159 -155z"/>
</g>
</svg>
